<?xml version="1.0" standalone="no"?>
<!DOCTYPE svg PUBLIC "-//W3C//DTD SVG 20010904//EN"
 "http://www.w3.org/TR/2001/REC-SVG-20010904/DTD/svg10.dtd">
<svg version="1.0" xmlns="http://www.w3.org/2000/svg"
 width="700.000000pt" height="700.000000pt" viewBox="0 0 700.000000 700.000000"
 preserveAspectRatio="xMidYMid meet">
<metadata>
Created by potrace 1.14, written by Peter Selinger 2001-2017
</metadata>
<g transform="translate(0.000000,700.000000) scale(0.100000,-0.100000)"
fill="#000000" stroke="none">
<path d="M3318 6865 c-2 -2 -41 -6 -88 -9 -95 -7 -148 -13 -230 -27 -30 -5
-75 -11 -99 -14 -24 -3 -47 -8 -51 -10 -4 -3 -25 -7 -46 -11 -35 -5 -150 -34
-274 -69 -81 -23 -249 -83 -348 -126 -531 -226 -1004 -593 -1352 -1046 -368
-481 -590 -1022 -674 -1648 -27 -196 -27 -664 -1 -805 5 -30 15 -96 19 -130 3
-19 17 -93 31 -165 111 -536 364 -1052 724 -1480 83 -98 264 -282 351 -357 30
-26 66 -57 80 -69 132 -113 390 -283 575 -380 486 -254 1002 -382 1550 -383
415 -1 765 57 1138 190 763 271 1408 813 1809 1519 237 417 389 915 425 1395
10 123 10 409 0 529 -75 948 -558 1832 -1315 2409 -367 280 -776 476 -1227
590 -66 17 -140 34 -165 38 -25 4 -47 8 -50 9 -3 1 -27 5 -55 9 -27 4 -61 10
-75 12 -14 2 -50 7 -80 10 -30 3 -68 8 -85 10 -33 5 -482 13 -487 9z m392
-229 c584 -40 1138 -238 1616 -577 323 -230 619 -545 840 -894 211 -332 385
-796 439 -1170 3 -23 7 -50 9 -60 2 -11 7 -51 10 -90 4 -38 9 -99 12 -134 11
-127 5 -469 -11 -549 -2 -12 -6 -47 -10 -79 -17 -168 -98 -487 -173 -688 -246
-656 -711 -1217 -1315 -1584 -357 -217 -785 -368 -1207 -425 -37 -5 -111 -13
-195 -22 -61 -6 -381 -6 -450 0 -109 10 -276 31 -325 41 -14 3 -34 7 -45 9
-422 85 -813 246 -1155 476 -259 175 -572 466 -726 675 -16 22 -32 42 -35 45
-11 9 -135 193 -176 260 -102 168 -209 392 -273 575 -69 193 -141 494 -155
646 -4 35 -8 69 -10 76 -6 18 -18 249 -18 338 0 78 11 285 17 335 23 171 42
275 77 417 114 466 342 911 657 1283 65 77 264 276 342 342 306 262 670 469
1048 597 111 37 367 104 442 115 19 3 67 10 105 16 95 15 132 18 255 26 58 3
106 7 107 8 4 3 215 -3 303 -8z"/>
<path d="M3172 6408 c-7 -7 -12 -19 -12 -27 0 -11 -4 -10 -20 4 -18 16 -38 18
-135 13 -5 0 -31 3 -57 7 -40 6 -49 4 -54 -10 -11 -27 13 -65 50 -80 19 -8 37
-19 41 -24 7 -12 -62 -53 -137 -81 -69 -25 -80 -46 -41 -78 59 -47 99 -38 214
48 35 26 65 47 67 46 1 -2 -24 -59 -56 -127 -78 -164 -79 -167 -158 -364 -37
-93 -81 -194 -98 -224 -38 -68 -43 -149 -11 -181 17 -17 23 -18 44 -7 20 10
30 31 52 107 50 169 177 534 188 538 6 2 11 -3 11 -12 0 -8 15 -27 34 -43 27
-20 33 -31 26 -43 -7 -13 -3 -20 15 -30 14 -7 25 -17 25 -21 0 -5 -13 -37 -28
-71 -16 -35 -44 -101 -63 -147 l-34 -83 23 -18 c38 -31 58 -15 90 69 16 42 33
91 36 109 4 17 12 32 16 32 5 0 23 14 39 32 17 18 33 29 36 26 4 -4 -5 -17
-19 -29 -21 -18 -23 -25 -15 -42 13 -23 -5 -64 -32 -72 -14 -5 -34 -44 -25
-52 4 -4 38 -6 73 -5 26 2 34 7 39 27 4 18 10 23 18 16 26 -22 67 -21 91 3 32
32 23 62 -20 70 -41 8 -45 18 -29 78 12 46 11 49 -13 68 -14 11 -32 20 -39 20
-8 0 -11 6 -8 15 4 8 1 22 -5 29 -13 16 -10 18 44 46 40 20 44 52 10 86 -21
21 -32 25 -57 20 l-30 -6 36 40 c20 22 36 42 36 45 0 2 -12 16 -26 31 -21 20
-33 25 -56 20 -23 -5 -28 -2 -26 12 3 18 -21 21 -54 7 -34 -14 -18 12 41 68
33 31 61 62 64 69 7 19 -23 65 -50 77 -30 14 -36 14 -51 -1z"/>
<path d="M4285 6253 c-33 -8 -57 -34 -44 -49 11 -13 -5 -59 -74 -215 -51 -115
-44 -110 -128 -116 -57 -4 -78 -9 -91 -25 -22 -25 -22 -27 6 -61 l23 -28 36
17 c42 20 58 13 33 -15 -40 -44 -121 -63 -194 -47 -32 8 -33 7 -30 -21 4 -40
55 -63 137 -63 75 0 136 29 169 81 24 38 24 38 47 -101 8 -52 17 -104 20 -115
3 -15 18 -23 57 -33 66 -15 80 -15 113 0 37 16 31 34 -18 56 -54 24 -89 61
-106 110 -7 20 -24 65 -38 100 -14 34 -24 64 -22 66 2 2 36 6 74 9 125 11 150
21 174 65 10 19 8 25 -15 47 -15 14 -34 25 -43 25 -10 0 -23 6 -29 12 -17 17
-31 -4 -24 -38 4 -21 1 -24 -29 -25 -34 -1 -62 1 -66 5 -8 7 79 194 103 223
16 19 32 39 35 45 13 20 -30 101 -51 97 -3 -1 -14 -4 -25 -6z"/>
<path d="M1788 6069 c-26 -14 -23 -70 6 -127 17 -32 26 -72 30 -127 7 -84 33
-254 42 -279 6 -17 42 -28 50 -15 3 5 7 53 9 106 2 54 8 116 13 138 4 22 7 67
6 100 -7 138 -21 175 -68 175 -13 0 -33 9 -46 20 -13 11 -23 20 -24 20 -1 0
-9 -5 -18 -11z"/>
<path d="M3041 5819 c-46 -62 -44 -109 4 -109 55 0 81 55 53 115 -15 33 -29
32 -57 -6z"/>
<path d="M1966 5719 c-31 -37 -32 -46 -6 -74 l20 -21 -49 -110 c-27 -60 -76
-169 -110 -242 -33 -73 -61 -145 -61 -159 0 -23 3 -25 33 -20 51 8 121 29 136
41 18 14 31 51 37 105 9 90 40 211 53 211 4 0 9 -21 10 -47 2 -27 4 -61 6 -78
2 -16 3 -37 4 -46 1 -8 7 -24 15 -34 12 -17 17 -17 45 -5 32 13 33 14 29 72
-2 32 0 58 3 58 8 0 33 -78 35 -107 1 -29 24 -55 41 -49 10 4 23 -14 44 -59
16 -35 29 -71 29 -79 0 -20 39 -46 67 -46 24 0 42 24 97 126 l27 50 -27 42
c-15 23 -31 42 -34 42 -10 0 -33 -30 -50 -64 l-15 -29 -6 38 c-7 41 -41 78
-63 69 -8 -3 -21 14 -34 47 -27 64 -27 71 -2 87 22 13 26 57 14 146 -8 53 -23
66 -70 59 -26 -4 -33 -11 -38 -36 -4 -21 -10 -27 -16 -21 -7 7 -5 26 7 57 20
55 13 75 -31 90 -20 7 -30 6 -36 -3 -5 -8 -9 -7 -13 4 -11 28 -62 20 -91 -15z"/>
<path d="M5195 5710 c-3 -5 -4 -14 -1 -19 3 -5 -1 -14 -9 -21 -10 -9 -15 -9
-15 -1 0 6 -9 11 -21 11 -16 0 -20 -5 -17 -23 1 -13 -5 -32 -15 -41 -19 -19
-23 -61 -7 -71 15 -9 50 4 50 20 0 17 20 24 44 15 14 -4 16 -9 8 -14 -7 -4
-12 -4 -12 0 0 4 -9 -1 -20 -11 -25 -22 -19 -32 20 -33 53 -1 90 -13 90 -28 0
-8 -9 -14 -19 -14 -11 0 -21 -5 -23 -11 -2 -6 -31 3 -71 21 -84 40 -106 36
-76 -14 22 -38 81 -78 169 -115 57 -25 102 -51 85 -51 -11 0 -119 38 -179 64
-21 9 -48 13 -61 10 -13 -3 -26 -1 -29 5 -11 18 -34 13 -41 -9 -3 -10 1 -33
10 -50 13 -25 13 -30 2 -30 -8 0 -27 -3 -43 -6 -20 -4 -35 0 -49 13 -54 50
-151 105 -187 106 -21 0 -40 -2 -43 -5 -4 -3 -1 -33 6 -67 8 -45 16 -61 28
-61 9 0 47 -15 85 -33 l68 -32 -20 -23 c-11 -12 -30 -38 -43 -57 -13 -19 -29
-35 -35 -35 -6 0 -17 19 -24 43 -15 52 -38 97 -49 97 -4 0 -8 -15 -8 -32 0
-18 -2 -57 -5 -85 -7 -64 8 -143 30 -160 22 -18 77 -16 96 2 8 8 37 53 65 99
70 116 71 116 134 82 29 -16 64 -40 79 -54 24 -22 31 -24 53 -14 21 10 24 16
18 44 -8 42 -18 55 -65 79 -45 23 -49 35 -11 34 39 0 40 24 2 79 -17 26 -29
49 -27 51 2 3 30 -18 62 -46 93 -83 285 -142 300 -91 3 9 4 26 1 37 -2 11 -4
25 -4 32 -1 7 -22 24 -47 39 -46 27 -46 27 -23 40 16 8 46 11 89 7 85 -7 119
-7 126 -1 9 10 12 63 3 85 -4 12 -20 24 -36 28 -15 3 -46 17 -67 30 -34 20
-37 25 -22 31 10 4 43 3 73 -3 47 -9 57 -7 78 9 36 28 42 74 14 104 -23 25
-48 31 -64 15 -19 -18 -239 -37 -233 -21 3 9 -24 52 -29 46 -3 -2 -15 -1 -27
4 -12 4 -29 4 -38 -1 -11 -6 -19 -5 -23 1 -8 13 -42 13 -50 0z"/>
<path d="M4955 5572 c-11 -4 -29 -13 -40 -19 -19 -12 -19 -14 13 -43 32 -30
33 -30 69 -15 43 18 54 32 51 60 -2 15 -11 20 -38 22 -19 1 -44 -2 -55 -5z"/>
<path d="M3185 5274 c-168 -30 -411 -111 -422 -141 -3 -8 6 -52 21 -96 14 -45
26 -87 26 -94 0 -15 -232 -153 -257 -153 -10 0 -45 30 -78 66 -48 52 -65 65
-81 60 -31 -10 -191 -171 -257 -258 l-28 -38 -295 0 c-161 0 -294 -2 -294 -5
0 -2 81 -145 181 -317 271 -469 375 -649 397 -688 11 -19 129 -224 262 -455
133 -231 284 -492 335 -580 51 -88 143 -248 205 -355 62 -107 122 -211 132
-230 11 -19 89 -154 173 -300 162 -281 166 -288 240 -418 26 -45 51 -81 56
-80 8 3 217 360 661 1133 105 182 259 449 343 595 84 146 162 281 173 300 17
31 174 302 629 1090 72 124 140 245 152 268 l21 42 -294 0 c-240 0 -296 3
-303 14 -44 77 -265 296 -297 296 -16 0 -41 -20 -81 -65 -31 -36 -65 -69 -74
-74 -13 -7 -44 8 -131 65 -63 41 -120 81 -127 90 -9 12 -5 33 17 100 16 47 27
91 24 99 -11 28 -202 92 -375 125 -151 29 -158 27 -166 -41 -2 -24 -6 -55 -8
-69 -2 -14 -4 -33 -4 -42 -2 -39 -23 -45 -176 -43 -156 1 -163 3 -166 53 -1
12 -3 27 -4 32 -1 6 -3 30 -4 54 -1 40 -21 78 -39 75 -4 0 -43 -7 -87 -15z
m2087 -796 c-11 -18 -97 -168 -192 -333 -95 -165 -175 -302 -177 -305 -3 -3
-634 -5 -1404 -6 l-1399 -1 -77 131 c-41 72 -85 147 -95 166 -17 30 -202 351
-215 373 -2 4 802 7 1787 7 l1792 0 -20 -32z m-444 -762 c2 -2 -4 -15 -12 -28
l-16 -25 -1300 0 -1301 0 -14 21 c-8 11 -15 24 -15 28 0 13 2645 16 2658 4z
m-72 -134 l-13 -24 -1204 1 c-662 0 -1222 0 -1245 1 -33 0 -43 5 -51 23 l-11
23 1268 0 1269 0 -13 -24z m-50 -85 c2 -2 -4 -12 -14 -23 -18 -19 -41 -20
-1195 -19 l-1177 0 -15 22 -16 23 233 2 c317 4 2180 0 2184 -5z m-73 -124
l-15 -23 -1122 0 -1121 0 -11 23 -11 24 1148 0 1147 0 -15 -24z m-47 -86 c2
-2 -4 -12 -14 -23 -18 -19 -43 -19 -1075 -19 -1044 0 -1056 0 -1071 20 -14 20
-12 20 702 25 740 5 1452 4 1458 -3z m-1116 -103 c0 -3 -5 -14 -10 -25 -10
-18 -24 -19 -238 -19 -164 0 -231 3 -240 12 -9 9 -12 9 -12 0 0 -9 -59 -12
-234 -12 l-234 0 -16 25 -16 25 500 0 c275 0 500 -3 500 -6z m1044 -19 l-16
-25 -239 0 c-160 0 -240 4 -245 11 -4 8 -9 8 -17 0 -7 -7 -88 -11 -239 -11
-214 0 -228 1 -238 19 -5 11 -10 22 -10 25 0 3 230 6 510 6 l510 0 -16 -25z
m-1598 -88 c4 -4 0 -15 -9 -24 -14 -16 -36 -18 -182 -17 -168 0 -184 3 -185
39 0 11 365 13 376 2z m494 -2 c-1 -35 -17 -39 -182 -39 -148 -1 -165 1 -182
18 -18 18 -18 20 -3 25 29 11 367 7 367 -4z m537 -1 c1 -5 -1 -15 -6 -23 -7
-12 -43 -15 -173 -15 -143 -1 -165 1 -180 16 -10 10 -18 21 -18 26 0 11 373 8
377 -4z m508 4 c4 -3 2 -15 -3 -25 -9 -16 -25 -18 -187 -17 -160 1 -179 3
-191 19 -7 10 -12 21 -10 24 5 8 383 7 391 -1z m-1607 -120 c-14 -21 -24 -23
-120 -26 -103 -3 -106 -2 -122 23 l-16 25 136 0 136 0 -14 -22z m499 -3 c-12
-24 -15 -25 -121 -25 -92 0 -111 3 -122 18 -7 9 -14 20 -14 25 0 4 60 7 134 7
l134 0 -11 -25z m173 -17 c0 -4 -11 -8 -25 -8 -28 0 -30 3 -14 32 11 21 12 21
25 3 8 -10 14 -22 14 -27z m370 36 c0 -3 -5 -14 -10 -25 -10 -17 -22 -19 -120
-19 -98 0 -110 2 -120 19 -5 11 -10 22 -10 25 0 3 59 6 130 6 72 0 130 -3 130
-6z m504 -19 c-16 -24 -20 -25 -130 -25 -102 0 -114 2 -124 19 -5 11 -10 22
-10 25 0 3 63 6 140 6 l140 0 -16 -25z m-1604 -84 c-2 -24 -32 -41 -72 -41
-37 0 -47 4 -55 23 -10 22 -9 22 58 23 38 0 69 -2 69 -5z m242 -14 c4 -6 8
-15 8 -18 0 -9 -80 -15 -114 -9 l-27 5 20 21 c16 18 28 21 62 18 24 -2 47 -10
51 -17z m255 11 c8 -26 -12 -38 -63 -38 -42 0 -55 4 -64 19 -5 11 -10 21 -10
23 0 7 135 3 137 -4z m279 -13 c8 -10 12 -20 10 -22 -6 -6 -158 -5 -164 2 -4
4 3 15 14 24 30 24 121 22 140 -4z m260 12 c17 -17 -21 -37 -71 -37 -50 0 -65
9 -65 39 0 9 127 8 136 -2z m249 -14 c19 -28 14 -29 -68 -23 -68 5 -68 5 -49
25 27 29 96 28 117 -2z m265 11 c0 -37 -110 -52 -135 -17 -7 10 -12 20 -10 23
7 11 145 5 145 -6z m-1243 -120 l13 -21 -139 0 -140 0 16 24 c15 23 19 24 126
21 99 -3 111 -5 124 -24z m137 11 c-4 -8 -7 -15 -9 -15 -2 0 -5 7 -9 15 -3 9
0 15 9 15 9 0 12 -6 9 -15z m392 -2 c7 -10 14 -21 14 -24 0 -4 -65 -7 -145 -7
-80 0 -145 2 -145 4 0 2 6 13 12 24 12 18 24 20 132 20 101 0 121 -3 132 -17z
m138 2 c-4 -8 -7 -15 -9 -15 -2 0 -5 7 -9 15 -3 9 0 15 9 15 9 0 12 -6 9 -15z
m376 -4 c5 -11 10 -22 10 -24 0 -2 -60 -4 -134 -5 l-133 0 11 24 c11 23 15 24
123 24 101 0 113 -2 123 -19z m145 9 c-3 -5 -10 -10 -16 -10 -5 0 -9 5 -9 10
0 6 7 10 16 10 8 0 12 -4 9 -10z m-1133 -113 c5 -10 8 -21 5 -23 -2 -3 -81 -5
-176 -5 -123 -1 -176 2 -186 11 -34 29 1 36 175 35 155 0 172 -2 182 -18z
m532 1 c5 -9 8 -20 5 -23 -9 -8 -375 -8 -389 0 -8 5 -7 12 4 24 14 15 38 17
192 16 155 0 178 -2 188 -17z m517 5 c26 -26 -8 -33 -167 -34 -87 0 -169 0
-181 0 -24 1 -30 20 -13 37 15 15 346 12 361 -3z m-1084 -100 c1 -4 -2 -15 -7
-23 -7 -12 -34 -15 -130 -16 -106 -1 -122 1 -130 17 -6 10 -10 20 -10 23 0 13
273 13 277 -1z m530 3 c2 -2 0 -13 -6 -24 -9 -17 -22 -19 -146 -18 -122 1
-137 3 -147 20 -7 12 -7 20 0 25 11 7 292 5 299 -3z m513 -5 c0 -3 -6 -13 -13
-22 -17 -22 -253 -22 -267 1 -5 8 -10 18 -10 22 0 8 193 15 253 9 20 -2 37 -6
37 -10z m-1100 -104 c0 -26 -25 -37 -80 -37 -53 0 -80 11 -80 35 0 6 32 11 80
12 59 2 80 -1 80 -10z m218 -14 l14 -23 -61 0 -61 0 15 24 c21 32 71 31 93 -1z
m305 20 c4 -2 2 -13 -3 -24 -9 -16 -22 -19 -85 -19 -63 0 -76 3 -85 19 -5 11
-10 21 -10 23 0 6 174 7 183 1z m208 -3 c10 -6 19 -17 19 -25 0 -11 -13 -15
-56 -15 -56 0 -58 3 -31 38 12 15 42 16 68 2z m309 0 c0 -3 -6 -14 -13 -24
-19 -26 -134 -19 -153 10 -14 20 -13 20 76 21 49 0 90 -3 90 -7z m-763 -117
c7 -9 13 -20 13 -23 0 -3 -51 -6 -112 -5 -113 0 -115 1 -109 34 1 12 47 17
131 14 48 -2 68 -7 77 -20z m525 4 c19 -29 6 -33 -104 -31 -62 1 -114 2 -116
3 -1 0 2 10 8 20 11 22 43 27 140 23 36 -1 68 -8 72 -15z m-864 -7 c-11 -18
-28 -27 -28 -16 0 2 -3 11 -6 20 -5 12 0 16 20 16 24 0 25 -2 14 -20z m532 13
c0 -3 -7 -15 -17 -25 -15 -17 -17 -17 -35 -2 -27 25 -22 34 17 34 19 0 35 -3
35 -7z m510 -2 c0 -10 -29 -36 -33 -30 -1 2 -9 12 -16 22 -12 15 -10 17 18 17
17 0 31 -4 31 -9z m-644 -108 c7 -10 14 -21 14 -25 0 -5 -79 -8 -175 -8 -96 0
-175 3 -175 6 0 3 5 14 10 25 10 17 23 19 162 19 132 0 152 -2 164 -17z m524
-2 c5 -11 10 -22 10 -25 0 -3 -79 -6 -175 -6 -96 0 -175 2 -175 5 0 3 6 14 12
25 12 19 24 20 165 20 140 0 153 -2 163 -19z m-457 -111 l15 -25 -184 0 c-157
0 -186 3 -200 17 -9 9 -14 20 -11 25 3 4 86 8 185 8 l181 0 14 -25z m447 15
c-1 -39 -4 -40 -197 -40 -190 1 -218 7 -175 37 24 16 372 19 372 3z m-50 -101
c0 -3 -5 -14 -10 -24 -10 -18 -28 -19 -350 -19 -324 -1 -340 0 -350 19 -5 10
-10 21 -10 24 0 3 162 6 360 6 198 0 360 -3 360 -6z m-68 -109 c-11 -42 2 -40
-289 -38 -153 0 -281 1 -284 2 -7 1 -19 38 -14 43 9 9 590 2 587 -7z m-52
-101 c0 -3 -4 -13 -10 -23 -8 -17 -28 -18 -230 -18 -202 0 -222 2 -230 18 -6
10 -10 20 -10 23 0 3 108 6 240 6 132 0 240 -3 240 -6z m-60 -104 c0 -3 -6
-15 -14 -25 -12 -16 -28 -18 -167 -17 -133 1 -155 4 -166 19 -7 9 -13 20 -13
23 0 4 81 6 180 6 99 0 180 -3 180 -6z m-60 -108 c0 -4 -6 -14 -13 -23 -17
-22 -203 -21 -217 1 -15 24 -12 29 23 32 51 5 207 -3 207 -10z m-62 -101 c-18
-40 -53 -101 -57 -101 -6 0 -61 93 -61 103 0 2 27 4 61 5 33 0 59 -3 57 -7z"/>
<path d="M3760 4394 c-55 -16 -104 -65 -118 -116 l-10 -38 52 0 c47 0 54 3 64
25 22 48 94 53 115 8 14 -32 -10 -63 -95 -123 -71 -48 -127 -111 -129 -141 -1
-11 -2 -31 -3 -46 l-1 -28 183 -1 182 0 0 65 0 66 -50 1 c-48 0 -50 -1 -50
-27 0 -27 0 -27 -75 -28 -41 0 -75 2 -75 5 0 12 43 44 84 61 138 60 170 96
164 183 -4 61 -25 98 -71 125 -37 22 -110 26 -167 9z"/>
<path d="M2355 4391 c-3 -6 -4 -15 -1 -20 8 -12 -19 -33 -41 -31 -10 1 -35 2
-55 1 l-37 -1 2 -52 c2 -49 4 -53 27 -54 60 -3 56 3 56 -103 0 -55 -3 -99 -6
-99 -3 0 -22 0 -43 -1 l-38 -1 3 -47 3 -48 148 -3 148 -3 -3 53 c-3 52 -3 53
-35 52 -27 -1 -33 3 -34 20 0 11 -1 93 -2 181 l-2 160 -42 3 c-22 2 -44 -2
-48 -7z"/>
<path d="M3005 4391 c-79 -20 -117 -67 -117 -146 0 -106 59 -160 167 -152 33
3 70 8 83 12 18 6 22 4 22 -14 0 -72 -75 -116 -120 -71 -16 16 -33 20 -80 20
-33 0 -60 -3 -60 -7 0 -5 9 -23 20 -41 47 -77 209 -99 293 -40 46 33 68 90 72
187 5 129 -29 207 -105 238 -40 18 -132 25 -175 14z m126 -107 c24 -22 25 -76
1 -97 -31 -28 -68 -28 -96 0 -68 68 24 161 95 97z"/>
<path d="M4445 4384 c-43 -14 -94 -63 -96 -92 -1 -9 -2 -32 -4 -50 -3 -48 33
-113 75 -135 27 -14 50 -17 100 -13 36 2 73 8 83 11 27 11 22 -38 -9 -74 -31
-37 -77 -42 -96 -11 -11 17 -24 20 -75 20 -70 0 -74 -6 -42 -51 52 -74 190
-94 282 -42 47 27 78 96 81 184 6 126 -29 210 -101 244 -47 23 -146 27 -198 9z
m148 -102 c33 -29 13 -103 -31 -114 -32 -9 -81 18 -88 47 -18 73 61 118 119
67z"/>
<path d="M955 4640 c-72 -16 -131 -66 -166 -145 -30 -66 -20 -185 17 -199 18
-7 18 3 0 45 -24 58 -8 125 39 169 60 56 235 17 305 -68 32 -39 40 -98 19
-144 -18 -42 -80 -75 -144 -77 -11 -1 -15 -4 -10 -10 16 -14 135 -50 135 -41
0 5 -4 12 -10 15 -15 9 -12 19 15 51 131 151 62 368 -128 402 -23 5 -55 5 -72
2z"/>
<path d="M6138 4586 c2 -21 -1 -35 -10 -39 -104 -44 -135 -53 -161 -46 -15 4
-49 10 -74 14 -26 3 -49 8 -52 10 -3 1 -22 6 -42 9 -52 8 -89 24 -89 37 0 7
-3 9 -6 6 -4 -3 4 -35 17 -69 22 -59 24 -61 29 -33 4 24 10 30 30 29 24 -1 93
-10 135 -18 11 -3 28 -5 38 -5 9 -1 17 -5 17 -9 0 -16 -131 -162 -145 -162 -8
0 -19 8 -24 18 -18 30 -12 3 20 -86 28 -81 54 -129 49 -92 -4 29 1 39 52 102
29 34 55 65 58 68 3 3 20 23 39 45 24 28 52 46 95 62 l61 22 29 -32 c19 -22
26 -25 21 -12 -42 116 -57 153 -65 167 -6 10 -10 25 -10 33 0 8 -4 15 -8 15
-4 0 -6 -15 -4 -34z"/>
<path d="M1620 4249 c-53 -87 -130 -291 -130 -346 0 -23 -17 -6 -62 60 -23 34
-52 75 -66 91 l-24 30 6 -85 c10 -159 52 -304 127 -434 71 -124 66 -124 149 2
86 129 148 254 156 312 l6 43 -62 -42 c-34 -23 -64 -39 -67 -36 -3 3 -1 36 5
73 13 94 4 342 -14 362 -1 2 -12 -12 -24 -30z"/>
<path d="M5333 4219 c-12 -68 -10 -292 2 -346 5 -20 4 -33 -2 -33 -5 0 -36 19
-68 42 l-58 41 6 -42 c5 -40 48 -137 99 -226 26 -45 80 -127 88 -135 3 -3 13
-17 23 -32 22 -36 28 -35 52 5 80 132 121 227 149 350 18 75 30 227 19 227 -9
-1 -109 -139 -119 -164 -10 -27 -21 -18 -29 22 -17 91 -93 277 -138 336 -13
17 -15 13 -24 -45z"/>
<path d="M681 4120 c-6 -11 -13 -68 -25 -180 -5 -45 -4 -50 4 -28 15 37 51 42
143 20 4 -1 19 -2 33 -2 26 0 26 0 19 -62 -11 -102 -3 -96 -101 -81 -48 6 -89
14 -91 17 -3 3 -6 16 -7 30 -2 35 -16 33 -17 -1 0 -16 -2 -37 -5 -48 -3 -18
-16 -114 -16 -125 -1 -21 4 -21 15 0 11 21 19 25 57 24 60 -2 316 -36 329 -44
6 -3 12 -16 14 -28 5 -36 13 -34 15 5 2 20 5 39 7 43 2 3 6 40 9 81 3 40 3 65
-1 54 -13 -48 -22 -50 -154 -29 -35 5 -37 7 -33 42 2 20 6 54 10 75 l6 39 52
-7 c121 -16 125 -17 127 -65 1 -38 7 -14 23 99 16 107 15 135 -3 87 -12 -30
-32 -32 -141 -16 -36 5 -85 12 -110 15 -138 17 -148 21 -153 58 -2 18 -5 30
-6 27z"/>
<path d="M5917 4062 c-16 -2 -30 -9 -33 -16 -2 -6 7 -88 21 -180 14 -93 25
-176 25 -183 0 -12 10 -14 43 -9 23 3 50 5 60 5 27 1 20 21 -7 21 -34 0 -75
38 -82 77 -6 28 -3 33 17 37 26 6 210 34 274 42 22 3 50 7 63 9 18 3 27 -3 38
-28 15 -32 15 -31 9 23 -14 119 -18 146 -26 165 -7 18 -8 17 -8 -6 -1 -15 -7
-31 -14 -37 -13 -11 -24 -13 -117 -27 -58 -9 -90 -14 -118 -20 -13 -2 -50 -7
-82 -11 l-57 -6 -5 31 c-6 41 9 70 52 99 l34 23 -30 -3 c-16 -2 -42 -4 -57 -6z"/>
<path d="M1315 3570 c8 -160 42 -264 130 -406 28 -45 45 -83 45 -103 0 -17 -3
-31 -6 -31 -3 0 -31 22 -62 48 -31 27 -72 59 -90 71 l-33 23 7 -29 c42 -177
160 -356 307 -466 20 -16 37 -37 37 -48 0 -10 -2 -19 -4 -19 -1 0 -50 22 -107
49 -57 26 -114 51 -127 54 l-23 5 22 -36 c110 -183 274 -338 461 -437 83 -44
108 -68 108 -106 0 -5 -26 3 -57 18 -73 33 -150 61 -192 68 l-32 6 27 -38 c73
-100 146 -160 269 -221 96 -47 121 -56 245 -82 98 -21 120 -35 120 -76 0 -22
-1 -22 -52 -9 -29 8 -71 16 -93 20 -23 3 -52 8 -65 10 -14 3 -54 8 -90 11
l-65 5 62 -60 c107 -103 263 -161 537 -201 39 -6 72 -12 74 -14 10 -11 -113
-27 -181 -24 -42 1 -77 0 -77 -3 0 -15 112 -82 182 -109 178 -69 449 -78 657
-21 l44 13 -84 40 c-75 37 -99 56 -229 188 -90 91 -173 164 -220 195 -81 53
-238 130 -247 121 -3 -3 28 -67 70 -143 41 -76 74 -139 72 -141 -1 -1 -39 12
-84 29 -67 25 -81 35 -81 52 0 36 -37 172 -60 220 -21 44 -86 117 -181 202
-24 22 -60 62 -79 89 -33 45 -35 46 -41 24 -12 -50 21 -198 52 -232 19 -21 10
-35 -18 -27 -86 25 -100 36 -113 92 -14 56 -15 84 -8 184 6 81 -20 173 -87
310 -77 155 -91 170 -101 109 -2 -16 -7 -40 -10 -53 -3 -14 -5 -65 -5 -113 0
-48 -2 -88 -6 -88 -12 0 -102 65 -103 74 0 5 13 50 29 100 45 140 48 198 17
352 -2 12 -7 45 -11 74 -4 29 -10 63 -15 74 -4 12 -8 25 -8 29 -2 40 -42 -56
-87 -206 l-26 -88 -29 21 c-17 12 -30 27 -30 35 0 23 52 167 102 285 66 154
77 212 69 350 -2 24 -4 23 -43 -20 -59 -65 -94 -123 -119 -198 l-22 -66 -24
30 c-36 44 -195 267 -200 282 -12 30 -21 7 -18 -48z"/>
<path d="M5643 3593 c-16 -21 -60 -81 -96 -133 -85 -122 -106 -145 -116 -134
-4 5 -17 35 -29 67 -23 62 -59 118 -116 182 -34 39 -35 39 -37 15 -10 -137 2
-197 70 -353 26 -62 61 -152 77 -200 l29 -89 -30 -21 c-16 -12 -31 -22 -33
-22 -2 0 -19 50 -37 110 -40 132 -72 206 -79 185 -9 -26 -48 -263 -53 -325 -5
-61 19 -180 54 -268 l17 -40 -31 -26 c-18 -14 -44 -33 -60 -43 l-28 -16 2 96
c1 94 -13 202 -26 202 -6 0 -91 -135 -91 -144 0 -3 -13 -34 -30 -69 -35 -76
-59 -172 -54 -218 8 -84 6 -148 -6 -203 -13 -54 -16 -59 -54 -76 -23 -9 -54
-20 -69 -24 l-28 -7 21 40 c41 81 54 138 51 221 l-2 35 -21 -30 c-11 -16 -62
-70 -113 -120 -151 -148 -184 -204 -218 -375 l-13 -62 -75 -29 c-41 -16 -77
-29 -80 -29 -4 0 28 64 70 143 42 78 74 143 70 145 -15 6 -163 -69 -248 -125
-56 -38 -132 -105 -221 -194 -129 -132 -193 -181 -273 -210 -44 -16 -34 -24
45 -40 107 -21 146 -24 293 -24 125 1 163 5 230 24 92 26 205 79 253 119 l33
27 -98 -3 c-65 -2 -111 1 -137 10 l-38 14 123 22 c68 13 138 25 154 28 58 11
181 56 233 86 30 17 79 54 110 84 l57 53 -36 1 c-39 0 -243 -34 -296 -49 -32
-9 -33 -9 -33 19 0 36 28 56 90 65 141 20 326 99 428 184 59 49 139 147 129
157 -9 9 -106 -22 -191 -61 l-78 -36 7 28 c9 39 20 49 79 76 173 79 352 244
471 430 44 70 45 70 -114 -4 -124 -58 -151 -53 -76 13 95 84 123 114 177 190
54 75 99 169 123 260 l13 48 -46 -32 c-26 -18 -66 -50 -90 -72 -23 -21 -45
-36 -48 -33 -18 18 -3 69 41 137 86 131 118 233 129 398 2 34 3 62 1 62 -2 0
-16 -17 -32 -37z"/>
<path d="M5939 3555 c-3 -5 -6 -59 -7 -120 -1 -91 1 -105 10 -80 6 17 15 33
20 36 13 9 372 -1 381 -10 4 -4 9 -17 10 -29 0 -11 5 -18 9 -16 4 3 7 56 7
117 -1 62 -4 102 -6 90 -8 -43 -25 -47 -196 -45 -201 3 -215 5 -219 40 -2 15
-6 23 -9 17z"/>
<path d="M800 3461 c-117 -25 -185 -121 -175 -245 13 -151 145 -242 292 -200
58 16 98 48 130 101 22 38 26 56 25 113 -1 78 -18 126 -59 168 -54 56 -135 80
-213 63z m182 -122 c49 -25 68 -51 68 -94 0 -48 -22 -74 -84 -100 -46 -19
-167 -31 -219 -21 -57 11 -97 50 -97 95 0 58 41 99 120 121 44 12 188 12 212
-1z"/>
<path d="M5921 3181 c10 -15 8 -25 -9 -52 -45 -73 -30 -162 32 -200 68 -41
128 -17 206 81 61 77 96 98 129 81 81 -44 17 -179 -91 -193 -31 -4 -50 -18
-25 -18 9 0 18 0 20 -1 28 -8 127 -25 127 -22 0 2 -5 13 -10 24 -8 14 -5 29
15 66 45 85 25 176 -46 215 -70 39 -129 12 -210 -95 -53 -70 -83 -89 -116 -74
-27 12 -38 45 -29 82 7 29 62 84 85 87 9 0 21 2 28 2 21 2 25 14 6 20 -10 3
-42 8 -71 11 -49 5 -52 4 -41 -14z"/>
<path d="M1100 2919 c0 -14 -6 -33 -12 -42 -14 -18 -297 -117 -335 -117 -12 0
-27 9 -33 21 -22 40 -22 10 0 -55 22 -68 40 -88 32 -37 -3 22 1 32 15 40 35
18 283 100 282 93 0 -4 -17 -33 -37 -64 -146 -227 -203 -321 -198 -325 2 -3
90 23 195 58 l190 63 27 -24 c15 -14 24 -18 21 -10 -3 8 -13 41 -23 73 -18 60
-33 77 -26 28 5 -35 -1 -39 -132 -84 -72 -25 -93 -30 -86 -18 5 9 47 74 93
145 l85 129 -24 70 c-27 80 -34 91 -34 56z"/>
<path d="M5870 2735 c-46 -15 -75 -61 -133 -208 -52 -129 -55 -144 -28 -108
10 14 25 25 32 26 8 1 88 -28 179 -64 l165 -66 0 -32 c0 -18 2 -33 5 -33 6 0
80 190 80 205 0 5 -7 -1 -16 -13 -8 -12 -24 -22 -34 -22 -28 0 -150 50 -150
61 0 10 35 26 73 33 35 7 168 43 171 47 5 6 46 119 46 126 0 3 -8 -1 -18 -10
-9 -9 -61 -27 -114 -41 -103 -28 -119 -30 -117 -18 13 81 -62 144 -141 117z
m52 -106 c47 -25 58 -58 37 -117 l-11 -31 -61 23 c-121 46 -116 43 -110 66 3
11 18 34 33 50 29 31 65 34 112 9z"/>
<path d="M1125 2316 c-84 -39 -124 -102 -126 -196 -2 -67 44 -159 111 -225
l51 -50 58 32 c53 30 60 31 79 17 12 -8 22 -13 22 -10 0 9 -100 176 -106 176
-2 0 -2 -10 1 -22 3 -13 2 -28 -2 -34 -10 -14 -90 -64 -102 -64 -6 0 -22 16
-37 35 -53 71 -27 154 69 218 94 62 179 78 232 43 57 -37 74 -137 35 -203 -11
-19 -19 -38 -16 -40 3 -3 33 12 68 33 56 34 60 39 39 44 -19 4 -27 17 -41 66
-46 168 -193 247 -335 180z"/>
<path d="M5527 2148 c-115 -176 -116 -178 -85 -150 17 15 31 20 44 15 29 -11
287 -182 301 -200 9 -11 9 -21 2 -35 -6 -11 -9 -22 -6 -24 2 -3 51 66 107 152
l102 157 -48 43 c-59 52 -70 55 -43 10 11 -18 20 -49 21 -68 1 -38 -24 -98
-52 -123 -19 -17 -22 -16 -72 14 -81 49 -91 59 -84 76 8 23 46 33 84 23 19 -5
36 -8 38 -5 2 2 -38 31 -89 64 -50 34 -94 59 -97 57 -2 -3 0 -8 6 -12 35 -24
53 -82 35 -111 -9 -13 -38 1 -149 75 -19 12 64 113 95 115 35 3 48 2 73 -6 25
-7 25 -7 5 12 -11 11 -37 30 -57 42 l-37 22 -94 -143z"/>
<path d="M5323 1877 c-46 -46 -56 -65 -23 -45 15 10 25 10 38 2 19 -12 116
-254 101 -254 -20 0 -253 101 -260 112 -5 7 -1 20 8 30 9 10 12 18 7 18 -11 0
-144 -132 -144 -143 0 -5 8 -4 17 1 20 12 28 9 267 -87 98 -40 180 -70 183
-67 3 2 -28 92 -68 198 -48 126 -73 208 -74 236 0 23 -2 42 -5 42 -3 0 -24
-20 -47 -43z"/>
<path d="M1520 1847 c-51 -23 -90 -59 -117 -105 -23 -38 -28 -59 -28 -112 0
-44 5 -72 16 -88 13 -19 15 -31 7 -65 -14 -63 6 -121 59 -174 24 -24 51 -43
59 -43 19 0 18 9 -6 30 -27 23 -41 66 -34 103 3 17 6 33 8 34 2 2 19 -4 39
-12 104 -43 238 10 293 118 25 47 23 142 -4 193 -24 47 -81 100 -128 120 -40
17 -129 17 -164 1z m211 -64 c26 -16 39 -35 45 -71 13 -73 -155 -252 -237
-252 -96 0 -136 89 -78 176 32 50 109 122 153 143 50 25 79 26 117 4z"/>
<path d="M2013 1544 c9 -11 17 -27 17 -36 0 -15 -153 -242 -198 -293 -19 -21
-26 -24 -43 -14 -43 22 -27 1 27 -37 31 -21 68 -49 84 -61 35 -29 57 -30 29
-2 -11 11 -18 27 -15 34 13 36 211 305 223 305 8 0 24 -5 35 -11 63 -34 -54
60 -147 117 l-30 18 18 -20z"/>
<path d="M4881 1490 c-104 -74 -100 -70 -60 -64 34 6 34 6 133 -136 54 -79
101 -151 104 -162 2 -10 -4 -28 -13 -38 -10 -11 -15 -20 -11 -20 11 0 186 123
182 128 -3 2 -13 -1 -23 -6 -10 -5 -24 -7 -30 -5 -13 5 -183 242 -208 290 -13
25 -13 29 7 50 36 38 7 25 -81 -37z"/>
<path d="M2260 1373 c0 -3 7 -11 15 -17 8 -6 16 -22 17 -36 2 -28 -125 -309
-147 -326 -8 -6 -27 -10 -43 -7 -17 2 -2 -9 42 -32 39 -19 72 -33 74 -31 2 3
-6 14 -18 26 -27 27 -25 37 39 171 26 57 51 113 55 123 3 10 8 17 11 15 2 -2
29 -103 60 -224 31 -121 58 -222 60 -223 5 -5 23 32 100 199 76 166 88 183
125 174 40 -10 12 11 -55 40 -54 24 -58 25 -41 6 10 -11 18 -31 18 -43 0 -23
-82 -202 -89 -195 -2 3 -5 13 -7 23 -2 11 -14 57 -26 104 -12 47 -23 90 -25
95 -1 6 -6 29 -10 53 -6 36 -14 46 -44 61 -56 29 -111 51 -111 44z"/>
<path d="M4643 1340 c-65 -30 -82 -45 -38 -34 25 6 65 -17 65 -37 0 -5 18 -45
40 -89 47 -97 54 -97 -135 0 l-131 67 -67 -30 c-37 -16 -67 -33 -67 -38 0 -5
6 -6 13 -3 7 2 23 1 36 -4 21 -7 35 -34 140 -264 26 -59 27 -80 0 -96 -41 -26
-11 -22 55 7 61 28 90 50 47 36 -37 -11 -54 9 -118 143 -35 74 -62 136 -60
138 1 2 94 -42 206 -97 112 -55 206 -98 208 -95 5 4 -42 110 -118 271 -41 87
-44 106 -19 133 27 28 19 27 -57 -8z"/>
<path d="M4197 1154 c-1 -2 -14 -5 -27 -8 -73 -14 -90 -19 -90 -26 0 -4 10 -5
23 -3 13 3 29 -2 35 -10 12 -14 56 -197 65 -268 12 -97 -90 -167 -157 -106
-20 18 -30 49 -55 161 -38 171 -38 181 -3 201 27 16 27 16 2 11 -211 -40 -217
-42 -170 -51 12 -2 25 -6 27 -9 2 -2 17 -63 33 -136 40 -179 46 -194 92 -220
72 -41 197 -12 238 55 26 43 25 81 -7 238 l-26 130 27 22 c18 15 22 22 12 22
-9 0 -17 -2 -19 -3z"/>
<path d="M2901 1118 c-179 -31 -250 -257 -120 -381 59 -56 176 -87 273 -73
l43 7 13 60 c12 54 16 61 42 66 16 3 27 8 24 10 -7 7 -168 43 -191 42 -19 0
-19 -1 1 -9 30 -12 33 -27 21 -93 -10 -56 -11 -57 -44 -57 -48 0 -96 23 -117
55 -51 78 -5 282 74 328 81 48 193 -11 215 -115 4 -15 11 -28 17 -28 6 0 9 3
6 6 -3 3 0 29 8 57 8 29 14 60 14 70 0 15 -3 15 -20 5 -17 -11 -27 -9 -68 14
-58 32 -132 47 -191 36z"/>
</g>
</svg>
